<?xml version="1.0" encoding="utf-8" standalone="no"?>
<!DOCTYPE svg PUBLIC "-//W3C//DTD SVG 1.1//EN" "http://www.w3.org/Graphics/SVG/1.1/DTD/svg11.dtd">

<svg style="stroke-linejoin:round; stroke:black; stroke-width:0.5pt; text-anchor:middle; fill:none" xmlns="http://www.w3.org/2000/svg" height="840mm" width="594mm" version="1.1" xmlns:xlink="http://www.w3.org/1999/xlink" font-family="Helvetica, Arial, FreeSans, Sans, sans, sans-serif" viewBox="0 0 594 840">

<g>

<rect width="70.0" stroke="none" y="35.0" x="17.0" fill="black" height="70.0" />

<rect width="70.0" stroke="none" y="175.0" x="17.0" fill="black" height="70.0" />

<rect width="70.0" stroke="none" y="315.0" x="17.0" fill="black" height="70.0" />

<rect width="70.0" stroke="none" y="455.0" x="17.0" fill="black" height="70.0" />

<rect width="70.0" stroke="none" y="595.0" x="17.0" fill="black" height="70.0" />

<rect width="70.0" stroke="none" y="735.0" x="17.0" fill="black" height="70.0" />

<rect width="70.0" stroke="none" y="105.0" x="87.0" fill="black" height="70.0" />

<rect width="70.0" stroke="none" y="245.0" x="87.0" fill="black" height="70.0" />

<rect width="70.0" stroke="none" y="385.0" x="87.0" fill="black" height="70.0" />

<rect width="70.0" stroke="none" y="525.0" x="87.0" fill="black" height="70.0" />

<rect width="70.0" stroke="none" y="665.0" x="87.0" fill="black" height="70.0" />

<rect width="70.0" stroke="none" y="35.0" x="157.0" fill="black" height="70.0" />

<rect width="70.0" stroke="none" y="175.0" x="157.0" fill="black" height="70.0" />

<rect width="70.0" stroke="none" y="315.0" x="157.0" fill="black" height="70.0" />

<rect width="70.0" stroke="none" y="455.0" x="157.0" fill="black" height="70.0" />

<rect width="70.0" stroke="none" y="595.0" x="157.0" fill="black" height="70.0" />

<rect width="70.0" stroke="none" y="735.0" x="157.0" fill="black" height="70.0" />

<rect width="70.0" stroke="none" y="105.0" x="227.0" fill="black" height="70.0" />

<rect width="70.0" stroke="none" y="245.0" x="227.0" fill="black" height="70.0" />

<rect width="70.0" stroke="none" y="385.0" x="227.0" fill="black" height="70.0" />

<rect width="70.0" stroke="none" y="525.0" x="227.0" fill="black" height="70.0" />

<rect width="70.0" stroke="none" y="665.0" x="227.0" fill="black" height="70.0" />

<rect width="70.0" stroke="none" y="35.0" x="297.0" fill="black" height="70.0" />

<rect width="70.0" stroke="none" y="175.0" x="297.0" fill="black" height="70.0" />

<rect width="70.0" stroke="none" y="315.0" x="297.0" fill="black" height="70.0" />

<rect width="70.0" stroke="none" y="455.0" x="297.0" fill="black" height="70.0" />

<rect width="70.0" stroke="none" y="595.0" x="297.0" fill="black" height="70.0" />

<rect width="70.0" stroke="none" y="735.0" x="297.0" fill="black" height="70.0" />

<rect width="70.0" stroke="none" y="105.0" x="367.0" fill="black" height="70.0" />

<rect width="70.0" stroke="none" y="245.0" x="367.0" fill="black" height="70.0" />

<rect width="70.0" stroke="none" y="385.0" x="367.0" fill="black" height="70.0" />

<rect width="70.0" stroke="none" y="525.0" x="367.0" fill="black" height="70.0" />

<rect width="70.0" stroke="none" y="665.0" x="367.0" fill="black" height="70.0" />

<rect width="70.0" stroke="none" y="35.0" x="437.0" fill="black" height="70.0" />

<rect width="70.0" stroke="none" y="175.0" x="437.0" fill="black" height="70.0" />

<rect width="70.0" stroke="none" y="315.0" x="437.0" fill="black" height="70.0" />

<rect width="70.0" stroke="none" y="455.0" x="437.0" fill="black" height="70.0" />

<rect width="70.0" stroke="none" y="595.0" x="437.0" fill="black" height="70.0" />

<rect width="70.0" stroke="none" y="735.0" x="437.0" fill="black" height="70.0" />

<rect width="70.0" stroke="none" y="105.0" x="507.0" fill="black" height="70.0" />

<rect width="70.0" stroke="none" y="245.0" x="507.0" fill="black" height="70.0" />

<rect width="70.0" stroke="none" y="385.0" x="507.0" fill="black" height="70.0" />

<rect width="70.0" stroke="none" y="525.0" x="507.0" fill="black" height="70.0" />

<rect width="70.0" stroke="none" y="665.0" x="507.0" fill="black" height="70.0" />

</g>

</svg>

